<svg version="1.0" xmlns="http://www.w3.org/2000/svg" width="5333.333" height="3200" fill="#fff" viewBox="0 0 4000 2400"><path d="M2165 849c-30.6 3.3-58.5 13.4-81.3 29.7-10.2 7.3-25.7 22.5-32.8 32.3-17.6 24-28 50.5-33.4 84.5-2.2 14-3.1 46.3-1.6 62.1 7.9 85.1 57.9 142.7 136.3 157 10.2 1.8 36.3 2.6 47.8 1.3 34.1-3.6 63.4-16.6 84.2-37.2 18.2-18.1 28.9-38.5 34.9-66.7 3.2-15.3 3.3-43.7.1-56-2.2-8.6-9.6-24.9-12.9-28.5-1-1.1-3.1-3.5-4.6-5.4-10.5-12.7-30-22.4-51.4-25.6-13.6-2.1-45.9-2-56.1.1-20.3 4.1-34.1 16.2-38.8 33.9-3.1 11.5-.9 29.8 4.6 38 3.9 5.8 11.3 12.4 17.8 15.8 7.3 3.8 13.1 5.3 23.7 6.3 12 1.1 16.5 4 16.5 10.6 0 10-9.5 16.7-24 17-23 .5-42.4-8.7-54.6-25.8-8.9-12.5-13.5-26.5-15.4-46.8-3.2-34.1 7.5-64.5 28.3-80.2 12.8-9.7 25.4-13.8 41.7-13.7 13.5.2 22.4 2.5 38.8 10.2 15.1 7.1 18.5 8.1 27.7 8.1 22.2 0 41.4-15 47-36.7 3.2-12.2 1.4-27.1-4.7-38.4-12.1-22.9-51.6-41.7-95.8-45.8-11.1-1-32.7-1-42-.1zM1472 851.6c-19.8 4.2-34.4 19.2-39.4 40.4-2.3 9.6-2.4 213.3-.1 226.3 7.7 44.1 35.1 75.1 79.4 89.7 16.3 5.4 27.5 7.1 49.4 7.7 33.4.9 57.1-3.7 80.9-15.9 31.8-16.2 51.7-42.6 59.5-78.8 1.7-7.9 1.8-15.9 1.8-117V895.5l-2.7-8.1c-5.2-15.2-14.3-25.9-27.3-32-7.8-3.7-10.6-4.3-21.5-4.9-26.4-1.3-47.1 13.4-54.7 39.1-1.6 5.4-1.8 14.4-2.3 106.9-.5 100-.5 101-2.6 105.6-5 10.8-13.5 16.1-25.7 16.1-8.7 0-16.5-3.6-20.8-9.7-6-8.4-5.9-6.7-5.9-112 0-106.2.1-103.8-6.5-117.1-8.9-18.1-24.8-28.1-46-28.9-5.3-.2-11.7.3-15.5 1.1zM1202 851.3c-.3.3-3.6.7-7.4 1.1-19.5 1.8-36.8 13.1-44.6 29.1-6.8 13.9-6.5 4.9-6.4 151 0 122.3.1 132.5 1.7 138.5 2.9 10.7 7.4 18.9 14.3 25.6 7.2 7.2 15.2 11.4 27.4 14.6 8.3 2.2 9.8 2.3 61 2.2 57 0 62.5-.4 79.9-5.9 49.2-15.6 78.1-57.1 75.8-108.9-.7-16-3.2-26.8-9.1-39.1-6.5-13.4-12.5-21.1-25.4-32.4-4.1-3.5-6.2-6.1-6.2-7.5 0-1.3 2.5-5.4 5.6-9.2 6.7-8.4 13.7-22.2 16.6-32.9 1.8-6.8 2.2-10.7 2.2-25.5 0-19.2-1-25.4-6.3-40-9.7-26.5-31.6-45.8-62.1-54.6-17.7-5.2-23.4-5.6-71.5-6.1-24.8-.2-45.3-.2-45.5 0zm72.4 83.8c5.4 1.8 12.9 8.9 15.4 14.6 7 16.3 1.1 36-13 43.3-7.6 4-24.9 4.8-30.6 1.5-5.2-3.1-5.7-5.7-5.7-30.1 0-25 .3-26.5 7-29.6 3.3-1.6 5.6-1.8 13.5-1.4 5.2.2 11.2 1 13.4 1.7zm-2.4 128c7.4 1.2 15 5 18.7 9.4 1.5 1.6 3.8 5.5 5.2 8.5 2.1 4.6 2.5 7 2.6 15 0 8.6-.3 10.1-3.1 16-3.8 7.9-8.1 12.4-15.4 15.9-4.8 2.2-7 2.6-18 2.9-11.8.3-12.7.2-16-2-2-1.4-4-3.8-4.7-5.8-1.5-4.4-1.7-45.9-.3-51.1 1.2-4.2 4.6-7.6 8.6-8.9 4.1-1.2 14.8-1.2 22.4.1zM1791.7 852.1c-26.2 3.4-43.7 18-49.7 41.5-1.9 7.5-2 11.5-2 140.1 0 117.6.2 133.2 1.6 139.6 4.7 21.1 18.4 36.1 37.5 41.2 7.1 1.9 23 1.9 30.3 0 14.9-3.9 25.6-12.7 32.6-26.8 6.3-12.9 7-18.4 7-58.3 0-40.8.1-41.4 9.1-41.4 3.7 0 6.5 1.4 7.9 4 .6 1.1 2.2 7.1 3.5 13.2 4.9 22.1 12.1 43 20.5 59.8 13.2 26.3 30.9 43.4 50.9 49.4 6.9 2 20.8 2.1 28.6.1 19.1-5 34.7-21.1 38.5-40 2.4-11.6-.5-27.4-7.2-39.5-2.6-4.7-19-27.6-20.8-29-2.4-1.9-19.1-28.2-22.7-35.6-6.2-13.2-6.1-14 4.3-23.8 21.8-20.4 33.4-50.2 33.4-85.7 0-21.6-6-42.1-17.5-59.3-4.5-6.8-18-20.6-23.9-24.4-2.2-1.5-4.6-3.2-5.3-3.8-2.4-2.3-19-10.3-27.4-13.2-10.8-3.8-25.5-7-37.9-8.1-12.2-1.1-82.3-1.1-91.3 0zm80.6 91.3c6.4 1 14 5.8 17.5 11.1 8.2 12.4 6.4 33.4-3.8 43.3-5.8 5.5-11.1 7.5-22.1 8-8.5.4-10.3.2-14.2-1.7-3.2-1.6-4.9-3.1-5.6-5.3-.7-1.9-1.1-11.9-1.1-25 0-23.5.5-26.4 5.3-28.9 4.5-2.5 13.7-3 24-1.5zM2399.5 852.1c-21.3 3.1-37.5 14-45 30.4-6.3 13.7-6 5.8-6 150 .1 146.2-.3 137.1 6.5 151.1 8 16.3 25.4 27.2 46.9 29.2 4.2.4 34.2.7 66.6.7 52.6-.1 59.7-.3 65.5-1.8 19.7-5.2 32.8-17.9 37-35.7 2.8-11.9 1.1-28-4.1-38.1-3.5-7-12.6-15.6-20.3-19.4-11.6-5.8-17.2-6.5-51.3-6.5-24.8 0-31-.3-34.1-1.5-5.7-2.3-7.2-5.7-7.3-16.4 0-10.4 1.1-13.6 5.9-16.4 3-1.8 5.7-2 29-2.2 14.6-.1 27.7-.7 30.4-1.4 8-1.9 15.5-5.7 20.7-10.6 9.9-9.3 13.6-19.2 12.9-34.7-.4-8.8-.9-10.6-4.1-17.2-5.2-10.4-12.3-16.4-25.1-21.4-3.2-1.2-10.1-1.7-32.6-2.2-30.7-.6-32.3-.9-35.4-6-2-3.5-2.4-18.2-.5-22.3 2.8-6.1 3.1-6.1 40.9-6.8 27.1-.5 35.6-1 39.9-2.2 17.3-5.1 28.8-15.7 34.1-31.7 3.1-9.2 3.2-24.9.1-34-4.3-12.5-12.7-22-24.8-27.7-12.4-5.9-16.2-6.2-81.3-6.1-32.2 0-61.2.4-64.5.9zM2650.8 852.1c-21.3 2.4-38.4 13.2-46.4 29.4-6.7 13.7-6.5 7.1-6.2 155.8l.3 134.2 2.3 7c8.3 24.6 26.1 37.5 51.7 37.5 26.4 0 44.7-13.9 52.2-39.7 1.4-4.9 1.7-11.6 2-42.8.2-20.4.6-38 .8-39.2 1.3-5.5 9.3-8.3 14.1-4.8 2.7 1.9 3.8 4.8 6.4 17.5 3 14.7 12 41.2 18.4 54.7 7.1 14.6 14.1 24.8 24.2 34.8 13.7 13.7 26.1 19.4 41.9 19.5 16.3 0 28.4-4.8 39.6-16 16.6-16.4 19.4-40.4 7.3-64.1-1.3-2.7-8.7-13.1-16.4-23.3-16.9-22.3-21.8-29.9-27.6-42.1-6.3-13.2-6.2-13.9 4.1-23.7 21.3-20.3 31.7-45.2 33.2-79.3.7-16.3-.8-27.8-5.3-41.5-13.1-39.3-48.1-65.3-98.4-73.1-8.6-1.3-87.7-2-98.2-.8zm87 94c11.1 5.4 15.8 14.7 15 29.8-.5 9.7-3.2 16.3-9 22.1-5.8 5.9-10.8 7.4-23.5 7.5-12.1 0-15.2-1.1-18-6.6-2-3.8-1.8-46.1.2-49.9 2.7-5.3 7.6-6.7 20.5-6.3 7.1.3 9.5.8 14.8 3.4zM1222 1249.3c-.3.3-2.7.8-5.5 1.2-6.7.8-21.5 5.9-27.3 9.2-19.9 11.4-34.1 30.8-41 55.8l-2.7 10v382l2.7 9.9c5.4 19.4 15.9 36.6 29 47.5 8.1 6.7 21.9 13.4 33.3 16.3 12.7 3.1 35.2 3.1 47.7 0 31.8-7.9 53.3-30 62.6-64.1l2.6-9.6.5-52c.6-48 .7-52.3 2.4-54.8 2.5-3.9 6.3-5.1 10.9-3.8 4.7 1.4 6.2 3.6 13.6 20 15.4 33.6 45.5 82.4 70 113 29.7 37.3 63.7 55.9 98.2 53.8 40.3-2.5 75.5-31.5 86.6-71.3.9-3.3 1.9-11.4 2.1-18 .9-19.8-3.5-35.7-14.3-53-3.1-4.9-5.9-9.1-6.3-9.4-.4-.3-1.2-1.2-1.7-2.1-.5-.9-3.1-4.2-5.9-7.4-4.3-5.1-7.7-8.8-17-19.1-1.1-1.2-4.5-5-7.5-8.5-3-3.4-6.2-7-7-7.9-1.3-1.4-7.5-8.6-13.8-16-1.1-1.4-3-3.6-4.2-5-1.2-1.4-3.4-4-4.8-5.9-1.5-1.8-5.1-6.3-8.1-10-11.7-14.2-26.5-34.9-29.3-40.6-3.1-6.6-3.5-10.9-1.4-15.8 1.1-2.7 17.2-19.3 31.7-32.8 8.6-7.9 28.1-29.6 38.7-42.8 46-57.5 46.8-112.6 2.2-149.3-6.6-5.4-22.2-13.3-32.5-16.4-8-2.4-10.7-2.7-24-2.8-17.2-.1-23 1.1-36.3 7.4-10.4 4.9-15.7 8.6-24.3 16.8-8.8 8.3-14.7 16.2-29.4 39.7-32.8 52.6-56.5 85.1-70.4 96.7-3.5 3-9.4 3.8-13.1 1.8-4.3-2.3-4.5-3.8-5.1-46-.5-39.5-.6-40.7-3.1-50.1-4.6-17.1-12.6-31.6-23.1-42.1-7.9-8-11.3-10.4-21.2-15.3-13-6.5-22.1-8.6-39.5-9.2-8-.3-14.7-.3-15 0zM1723.3 1250.4c-39.2 7.5-64.6 34.1-73.6 77.1-2 9.9-2.1 11.6-2.2 183-.1 95.2.2 177.4.7 182.8 4.1 46.1 30.9 79 72.1 88.4 11.2 2.5 35.7 2.3 46.9-.5 17-4.2 28.7-10.3 40.1-21.1 15.4-14.6 25-33.4 29.2-57.5 2.2-13.1 2.3-358.2 0-372.2-4.4-27.2-17.2-49.7-36.6-64.2-7.1-5.3-20.7-11.7-30.6-14.3-10.1-2.7-35.3-3.5-46-1.5zM1973.7 1250.5c-30.6 5.8-53.8 26.5-64.4 57.4-6.6 19.5-6.4 10.5-6 214.4l.3 184.2 2.1 8.7c7.7 31 25.5 52.8 51.1 62.7 19.7 7.5 43.9 7.9 64.5 1 29.5-9.8 48.1-32.8 55.3-68.3 1.4-7 1.7-17.9 1.9-78.3.3-66.8.4-70.4 2.2-73.5 3.6-6.1 10.9-5.9 15.6.4 1.3 1.8 20.9 39.2 43.5 83 22.6 43.9 44 84.3 47.4 89.9 12.8 20.5 27.6 34.9 44.3 42.9 13.7 6.6 22.5 8.5 40 8.4 27.3-.1 45.7-7.3 62.5-24.3 12.3-12.5 19.8-26.5 24.3-45.2l2.2-9.4v-380l-2.7-9.7c-3-10.8-8.9-24.1-13.9-31.5-5-7.3-16.2-17.8-23.7-22.2-15-8.9-30.6-12.6-50.2-11.8-13.7.5-15.2.8-25.5 3.8-27.2 8.1-46.6 29.6-55.2 61.4l-2.7 10-.6 73c-.5 66.5-.7 73.3-2.2 76.1-3.2 5.8-11.1 6.1-15.4.6-1.2-1.5-6.3-10.8-11.4-20.7-5.1-9.9-12.1-23.4-15.5-30-3.4-6.6-10.6-20.6-16-31-5.4-10.5-12.8-24.9-16.5-32-3.7-7.2-10.5-20.2-15-29-15.8-30.7-24-43.2-36.3-55.7-12.4-12.7-23.4-19.4-39.2-23.9-9.4-2.8-33.6-3.5-44.8-1.4zM2626.5 1250.5c-61.3 7-113.1 31.4-151.8 71.4-46 47.6-69.7 114-69.7 195.6 0 46.4 7.1 84.3 22.6 121.4 30.1 71.8 94.2 123.3 173.2 139 20.9 4.2 31.6 5 59.2 4.6 43-.6 70.7-6.8 104.5-23.5 18.5-9.2 30.8-17.7 44.5-30.7 29.4-28 47.3-62.5 54.6-105.3 2.4-14.2 3-47 1-59.5-6-39.1-25.2-67.3-57.6-84.7-10.7-5.7-26.1-11.2-37.5-13.2-19.9-3.7-30.3-4.4-60.5-4.1-27.2.3-35 1.3-48.9 6-12 4-19 8.4-27.7 17-13.2 13-18.6 27-18.7 48 0 19.8 5.3 32.8 18.8 46.2 6.7 6.6 9.9 9 17.6 12.7 11.8 5.7 19.4 7.6 34.1 8.6 18.1 1.3 24.8 5.3 25.5 15.2 1 13.3-13.1 23.5-33.7 24.5-17.1.9-37.2-3.1-51.5-10.4-29.5-14.9-47-41.2-54.2-81.3-2.3-13.2-2.3-43.9 0-57.2 6.6-37.8 25.3-65.3 54.7-80.7 14.9-7.8 30.3-11.4 48-11.3 21.4 0 33.8 3.3 59 15.3 9.1 4.3 20.1 8.8 24.4 9.9 26.2 6.7 57.5-3.8 74.1-24.8 11.3-14.1 17.3-32.8 16.2-50.2-2.1-32-18.3-52.9-56.2-72.5-24.2-12.6-52-20.7-85.5-25.1-17.2-2.2-62.5-2.8-78.5-.9z"/></svg>