<?xml version="1.0" encoding="utf-8"?>
<!-- Generator: Adobe Illustrator 19.2.1, SVG Export Plug-In . SVG Version: 6.00 Build 0)  -->
<svg version="1.1" id="layer" xmlns="http://www.w3.org/2000/svg" xmlns:xlink="http://www.w3.org/1999/xlink" x="0px"
	y="0px" viewBox="0 0 652 652" style="enable-background:new 0 0 652 652;" xml:space="preserve">
	<style type="text/css">
		.st0 {
			fill: #FFFFFf;
		}
		

		.st1 {
			fill: #FFFFFF;
		}

		.st2{
			fill: red
		}

	</style>
	<path class="st2" d="M138.5,395.6c-3.4-1.9-4.2-8-5.3-11.4c-1.1-3.4-2.5-3.2-3.6-5.1c-0.6-0.7-0.9-1.6-1.1-2.5l-1.8-0.9
	c-1.8-1-3.2-2.8-2.4-6c0.5-2,0.5-4.1,0.1-6.1c-1.1-0.5-2.2-1.2-3-2.1c-0.7-1.2-1.4,0-4.1-4.4c-2.7-4.4,5.1-8.1,7.9-11.2
	c1.7-2,2.1-4.8,1.3-7.2c-1-0.4-1.9-1-2.8-1.6c2.5,1.3,2.5-0.4,2.5-0.4s-1-5.7-3.5-8.9s-6.1-6.3-5.8-21.9
	c0.4-15.7,22.8-34.7,22.8-34.7l0,0c0.1-0.9,0.3-1.7,0.8-2.4c7.1-5.4,14.4-0.3,12.4-3.2c-12.7-12.6-27.1-5.9-40.5-16.4
	c-12.1-9.5-25.4-2.8-25.4-2.8s-3.2-23.4-5.1-28.5c-1.9-5.1-5.9-3.7-9,3.8c5.5,1.4,7.4,22.1,7.4,22.1s-0.3,5.2-7.6,3.3
	c-30.5-8.1-55,13.5-51.3,14.7c35.8,11,41.6,56.6,41.5,61.3c-0.1,4.7-3.2,8.1-3.3,9.8c-0.2,2.3,1.8,1.6,1.7,1.7
	c-0.4,0.5-1.1,0.7-1.8,0.6c0,0,0,1-0.4,4.4c-0.2,7.8,11.8,16.8,10.6,22.6c-1.2,5.7-6,5-9.8,5.6c-0.4,1,3.4,4.1,2.6,6.8
	s-4.2,3.3-4.2,3.3s2.7,2.4,2.7,5.1c-0.1,2.7-3.2,2-4.9,4c-1.8,2,3.5,12-0.9,15.6c-7.3,5.9-16.5-1.7-11.1,4.7
	c20.6,24.9,32.3,7.7,48.6,7.7C109.6,415,124.8,431,138.5,395.6" />
	<path class="st0" d="M436.4,285.8l32.6-33.9c0.5-0.5,0.6-1.2,0.3-1.9c-0.3-0.6-0.9-1.1-1.6-1.1h-22.2c-0.5,0-0.9,0.2-1.3,0.6
	l-30.2,32.7v-31.6c0-0.9-0.8-1.7-1.7-1.7c0,0,0,0,0,0h-18.1c-1,0-1.7,0.8-1.7,1.7V333c0,0.9,0.8,1.7,1.7,1.7c0,0,0,0,0,0h18.1
	c0.9,0,1.7-0.7,1.7-1.7c0,0,0,0,0,0v-24.5l7.6-7.9l24.3,33.4c0.3,0.4,0.8,0.7,1.4,0.7h21.8c0.6,0,1.2-0.4,1.5-0.9
	c0.3-0.6,0.2-1.3-0.2-1.8L436.4,285.8z" />
	<path class="st0" d="M487.5,249h18.1c1,0,1.7,0.8,1.7,1.7V333c0,1-0.8,1.7-1.7,1.7h-18.1c-1,0-1.7-0.8-1.7-1.7v-82.3
	C485.7,249.8,486.5,249,487.5,249z" />
	<path class="st0"
		d="M561.7,249h-32.1c-1,0-1.7,0.8-1.7,1.7V333c0,0.9,0.8,1.7,1.7,1.7c0,0,0,0,0,0h32.1c26.3,0,45.5-18,45.5-42.9
	v-0.2C607.1,266.9,588,249,561.7,249z M549.4,268.8h12.3c13.8,0,23.1,9.3,23.1,23.1v0.2c0,13.7-9.3,22.8-23.1,22.8h-12.3V268.8z" />
	<path class="st1" d="M255,249h-17.8c-1,0-1.7,0.8-1.7,1.7l0,0v45.6l-35.5-46.6c-0.3-0.4-0.8-0.7-1.4-0.7h-16.6c-1,0-1.7,0.7-1.8,1.7
	c0,0,0,0,0,0V333c0,0.9,0.8,1.7,1.7,1.7c0,0,0,0,0,0h17.9c0.9,0,1.7-0.8,1.7-1.7c0,0,0,0,0,0v-47.2l36.8,48.3
	c0.3,0.4,0.8,0.7,1.4,0.7H255c0.9,0,1.7-0.8,1.7-1.7c0,0,0,0,0,0v-82.3C256.7,249.8,255.9,249,255,249L255,249z" />
	<path class="st1" d="M317.1,247.6c-25.6,0-45.6,19.5-45.6,44.3v0.2c0,25.1,19.5,44,45.3,44c25.6,0,45.6-19.5,45.6-44.3v-0.2
	C362.4,266.5,342.9,247.6,317.1,247.6z M293.9,291.6c0-13.6,9.9-23.9,23-23.9c13.1,0,23.2,10.4,23.2,24.1v0.2
	c0,13.6-9.9,23.9-23,23.9c-13.1,0-23.2-10.4-23.2-24.1V291.6z" />
	<path class="st1" d="M233.1,354.3h-13.2c-0.9,0-1.7,0.8-1.7,1.7V378h-21v-22.1c0-0.9-0.8-1.7-1.7-1.7h-13.2c-0.9,0-1.7,0.8-1.7,1.7
	v60c0,0.9,0.7,1.7,1.7,1.7h0h13.2c0.9,0,1.7-0.7,1.7-1.7v-22.4h21v22.4c0,0.9,0.7,1.7,1.7,1.7h0h13.2c0.9,0,1.7-0.7,1.7-1.7l0,0v-60
	C234.8,355,234,354.3,233.1,354.3z" />
	<path class="st1" d="M306.7,354.3h-13.2c-0.9,0-1.7,0.8-1.7,1.7v34.4c0,8.3-3.9,12.7-11.3,12.7c-9.3,0-11.3-7.2-11.3-13.2v-33.9
	c0-0.9-0.7-1.7-1.7-1.7h-13.2c-0.9,0-1.7,0.8-1.7,1.7v34.2c0,18,10.1,28.3,27.6,28.3c17.8,0,28-10.5,28-28.8v-33.9
	C308.3,355,307.6,354.3,306.7,354.3z" />
	<path class="st1" d="M381.3,354.3h-13c-0.9,0-1.7,0.8-1.7,1.7v32l-25.1-33c-0.3-0.4-0.8-0.7-1.3-0.7h-12.2c-0.9,0-1.7,0.8-1.7,1.7
	v60c0,0.9,0.7,1.7,1.7,1.7l0,0h13c0.9,0,1.7-0.7,1.7-1.7l0,0v-33.2l26.1,34.2c0.3,0.4,0.8,0.6,1.3,0.7h11.2c0.9,0,1.7-0.7,1.7-1.7
	l0,0v-60C382.9,355,382.2,354.3,381.3,354.3z" />
	<path class="st1" d="M457.3,379.7h-26c-0.9,0-1.7,0.7-1.7,1.7l0,0v11.4c0,0.9,0.7,1.7,1.7,1.7l0,0h11.6v6c-3.2,1.9-7,2.9-10.7,2.8
	c-9.6,0-16.5-7.3-16.5-17.4v-0.2c0-9.4,7-17,15.5-17c6.5,0,10.3,2.1,14.6,5.7c0.4,0.3,0.8,0.4,1.3,0.4c0.4,0,0.9-0.3,1.1-0.6l8.3-10
	c0.6-0.7,0.5-1.8-0.2-2.3c-7.2-6.1-14.4-8.6-24.7-8.6c-18.6,0-33.1,14.4-33.1,32.7v0.2c0,18.9,14,32.5,33.2,32.5
	c9.8,0.1,19.3-3.5,26.7-9.9c0.4-0.3,0.6-0.8,0.6-1.3v-26.1C459.1,380.5,458.3,379.7,457.3,379.7
	C457.4,379.7,457.3,379.7,457.3,379.7z" />
	<path class="st1" d="M517.6,395.3c7.8-3.6,12-10.4,12-19.4v-0.2c0.2-5.5-1.8-10.9-5.6-14.9c-4.3-4.3-10.8-6.6-18.7-6.6h-27.4
	c-0.9,0-1.7,0.8-1.7,1.7v60c0,0.9,0.7,1.7,1.7,1.7l0,0H491c0.9,0,1.7-0.7,1.7-1.7l0,0v-17.5h7.8l12.4,18.5c0.3,0.5,0.8,0.7,1.4,0.7
	h15.4c0.6,0,1.2-0.3,1.5-0.9c0.3-0.6,0.2-1.2-0.1-1.7L517.6,395.3z M492.7,369.5h11.4c4,0,8.7,1.2,8.7,6.9v0.2
	c0,4.3-3.2,6.8-8.4,6.8h-11.7L492.7,369.5z" />
	<path class="st1" d="M598.8,355.1c-0.3-0.5-0.9-0.9-1.5-0.9h-15c-0.6,0-1.1,0.3-1.4,0.8l-13.1,21.7l-12.9-21.7
	c-0.3-0.5-0.8-0.8-1.4-0.8H538c-0.6,0-1.2,0.3-1.5,0.9c-0.3,0.5-0.3,1.2,0,1.7l22.8,35.9v23.2c0,0.9,0.7,1.7,1.7,1.7l0,0h13.2
	c0.9,0,1.7-0.7,1.7-1.7l0,0v-23.4l22.8-35.7C599.1,356.3,599.1,355.7,598.8,355.1z" />
	<path class="st1" d="M604.6,361.8L604.6,361.8c-0.2-4.6,3.4-8.5,8-8.6c4.6-0.2,8.5,3.4,8.6,8c0,0.2,0,0.4,0,0.6l0,0
	c0.2,4.6-3.4,8.5-8,8.6c-4.6,0.2-8.5-3.4-8.6-8C604.6,362.2,604.6,362,604.6,361.8L604.6,361.8z M620.3,361.8L620.3,361.8
	c0.1-4-3.2-7.4-7.2-7.4c-0.1,0-0.1,0-0.2,0c-4.1,0-7.4,3.3-7.4,7.4c0,0,0,0,0,0l0,0c0,4.1,3.3,7.4,7.3,7.4
	C617,369.2,620.3,365.9,620.3,361.8C620.3,361.8,620.3,361.8,620.3,361.8L620.3,361.8z M609.7,357.4h3.8c1.9,0,3.3,0.9,3.3,2.7
	c0,1.2-0.8,2.3-2,2.5l2.2,3.2h-2l-2-2.9h-1.8v2.9h-1.6L609.7,357.4z M613.3,361.6c1.1,0,1.7-0.6,1.7-1.4s-0.6-1.4-1.7-1.4h-2.1v2.8
	H613.3z" />
</svg>